<?xml version="1.0" standalone="no"?>
<!DOCTYPE svg PUBLIC "-//W3C//DTD SVG 20010904//EN"
 "http://www.w3.org/TR/2001/REC-SVG-20010904/DTD/svg10.dtd">
<svg version="1.0" xmlns="http://www.w3.org/2000/svg"
 width="3000.000000pt" height="2014.000000pt" viewBox="0 0 3000.000000 2014.000000"
 preserveAspectRatio="xMidYMid meet">
<metadata>
Created by potrace 1.16, written by Peter Selinger 2001-2019
</metadata>
<g transform="translate(0.000000,2014.000000) scale(0.100000,-0.100000)"
fill="#000000" stroke="none">
<path d="M16501 15336 c-9 -10 -84 -15 -354 -20 -263 -6 -345 -11 -357 -21
-10 -9 -60 -16 -148 -21 -102 -5 -137 -11 -149 -23 -12 -11 -43 -18 -108 -21
-65 -4 -97 -10 -108 -21 -12 -12 -46 -17 -147 -21 -95 -4 -136 -10 -148 -21
-12 -10 -52 -17 -127 -21 -68 -4 -115 -12 -125 -20 -8 -8 -53 -17 -102 -21
-63 -5 -94 -12 -112 -26 -18 -14 -40 -19 -85 -19 -48 0 -65 -4 -81 -20 -12
-12 -33 -20 -55 -20 -20 0 -50 -8 -68 -17 -18 -10 -41 -18 -52 -18 -11 -1 -87
-5 -168 -9 -95 -5 -152 -13 -160 -21 -8 -7 -62 -15 -147 -19 -89 -5 -144 -13
-164 -23 -18 -9 -67 -18 -121 -20 -64 -4 -97 -10 -115 -22 -14 -10 -54 -20
-94 -24 -37 -4 -75 -12 -83 -18 -7 -7 -37 -16 -65 -20 -28 -5 -58 -15 -67 -23
-9 -8 -37 -17 -63 -21 -26 -4 -52 -13 -59 -21 -6 -7 -33 -16 -60 -20 -28 -4
-55 -14 -65 -25 -9 -11 -29 -19 -43 -19 -15 0 -34 -9 -44 -20 -9 -11 -27 -20
-40 -20 -13 0 -32 -9 -42 -20 -10 -11 -28 -20 -40 -20 -12 0 -34 -9 -48 -20
-14 -11 -31 -20 -37 -20 -7 0 -25 -11 -42 -25 -16 -14 -38 -25 -49 -25 -10 0
-27 -9 -36 -20 -10 -11 -27 -20 -38 -20 -11 0 -41 -18 -65 -41 -25 -22 -57
-43 -72 -46 -15 -3 -44 -23 -65 -44 -21 -21 -47 -39 -58 -39 -11 0 -38 -18
-60 -40 -22 -21 -92 -90 -156 -153 -80 -78 -119 -123 -123 -144 -4 -16 -25
-49 -46 -72 -22 -24 -40 -51 -40 -61 0 -11 -18 -38 -40 -62 -22 -24 -40 -52
-40 -64 0 -11 -11 -30 -25 -42 -14 -12 -25 -31 -25 -42 0 -11 -18 -40 -40 -64
-22 -24 -40 -52 -40 -63 0 -11 -18 -37 -40 -59 -22 -21 -40 -48 -40 -59 0 -12
-20 -43 -45 -70 -25 -28 -45 -59 -45 -70 0 -11 -9 -28 -20 -38 -11 -9 -20 -26
-20 -37 0 -12 -18 -39 -40 -62 -21 -23 -42 -53 -45 -67 -3 -14 -23 -46 -45
-70 -22 -25 -40 -52 -40 -61 0 -9 -9 -25 -20 -35 -11 -10 -20 -28 -20 -40 0
-12 -20 -44 -45 -71 -24 -27 -45 -57 -45 -67 0 -10 -18 -37 -40 -59 -22 -23
-40 -52 -40 -63 0 -12 -9 -30 -20 -40 -11 -10 -20 -28 -20 -40 0 -11 -18 -40
-40 -62 -21 -23 -42 -53 -46 -67 -3 -14 -24 -45 -45 -68 -21 -24 -39 -51 -39
-60 0 -9 -10 -28 -22 -42 -59 -65 -68 -79 -68 -102 0 -14 -6 -24 -14 -24 -16
0 -26 -21 -26 -56 0 -15 -6 -24 -15 -24 -8 0 -15 -4 -15 -10 0 -5 -11 -19 -24
-32 -13 -13 -26 -34 -29 -48 -4 -14 -24 -45 -47 -68 -22 -24 -40 -50 -40 -58
0 -8 -9 -22 -20 -31 -11 -10 -20 -21 -20 -26 0 -5 -22 -30 -50 -57 l-50 -48
-673 -4 c-605 -3 -675 -5 -698 -20 -21 -13 -72 -17 -323 -23 -224 -6 -301 -11
-310 -21 -10 -9 -64 -15 -182 -20 -139 -5 -174 -10 -200 -25 -23 -14 -51 -19
-105 -19 -55 0 -84 -5 -112 -20 -22 -12 -56 -20 -86 -20 -33 0 -56 -6 -74 -20
-17 -14 -40 -20 -74 -20 -29 0 -65 -8 -87 -20 -21 -10 -58 -22 -82 -26 -23 -3
-51 -15 -60 -25 -12 -13 -31 -19 -59 -19 -29 0 -47 -6 -60 -20 -10 -11 -28
-20 -40 -20 -12 0 -32 -9 -45 -20 -13 -11 -31 -20 -40 -20 -10 0 -28 -8 -41
-18 -13 -11 -35 -22 -49 -25 -14 -4 -42 -22 -62 -41 -20 -19 -53 -39 -72 -46
-19 -6 -36 -17 -39 -24 -3 -7 -18 -16 -34 -19 -15 -3 -46 -24 -68 -46 -22 -22
-45 -41 -51 -41 -6 0 -19 -9 -29 -20 -10 -11 -23 -20 -30 -20 -10 0 -56 -42
-247 -226 -32 -30 -58 -60 -58 -65 0 -5 -6 -9 -12 -9 -7 -1 -22 -13 -33 -27
-11 -14 -32 -38 -46 -52 -15 -14 -29 -38 -33 -53 -3 -16 -11 -28 -16 -28 -5 0
-12 -17 -16 -37 -4 -20 -15 -46 -25 -57 -11 -11 -19 -30 -19 -42 0 -12 -8 -32
-19 -45 -10 -13 -21 -43 -24 -67 -3 -24 -12 -49 -20 -55 -8 -7 -18 -33 -21
-59 -4 -25 -13 -52 -21 -58 -7 -6 -17 -26 -21 -43 -3 -18 -15 -43 -25 -56 -11
-13 -19 -31 -19 -40 0 -9 -18 -36 -40 -60 -22 -25 -40 -50 -40 -56 0 -7 -20
-39 -45 -71 -25 -31 -45 -65 -45 -74 0 -9 -9 -25 -20 -35 -11 -10 -20 -29 -20
-41 0 -13 -9 -29 -20 -36 -11 -7 -20 -17 -20 -23 0 -6 -9 -16 -19 -22 -11 -7
-22 -25 -26 -41 -3 -16 -24 -47 -45 -68 -22 -22 -40 -47 -40 -58 0 -10 -18
-40 -40 -66 -22 -26 -40 -52 -40 -58 0 -5 -8 -20 -19 -33 -10 -13 -21 -40 -25
-61 -4 -20 -13 -38 -20 -41 -7 -3 -17 -26 -20 -50 -4 -25 -16 -55 -26 -68 -11
-12 -20 -34 -20 -48 0 -15 -8 -31 -19 -38 -12 -8 -20 -28 -24 -64 -4 -28 -13
-59 -20 -68 -8 -9 -17 -47 -20 -84 -3 -40 -11 -75 -20 -85 -11 -12 -17 -53
-22 -147 -6 -99 -11 -134 -24 -149 -14 -16 -16 -65 -16 -471 1 -399 3 -456 17
-472 12 -14 17 -53 23 -173 5 -114 10 -159 21 -171 9 -10 17 -49 21 -104 3
-47 11 -92 18 -99 7 -6 15 -34 19 -61 4 -28 14 -57 22 -66 8 -9 18 -40 23 -68
4 -28 15 -59 23 -69 9 -9 18 -36 21 -60 3 -24 12 -51 21 -61 9 -10 16 -25 16
-34 0 -9 11 -28 25 -43 14 -15 25 -37 25 -48 0 -12 18 -39 40 -61 23 -24 39
-50 40 -64 0 -16 21 -45 63 -86 34 -35 64 -73 65 -86 5 -29 345 -372 381 -384
12 -4 30 -13 39 -21 10 -8 34 -30 56 -49 38 -34 148 -95 171 -95 7 0 20 -9 30
-20 10 -11 26 -20 35 -20 10 0 29 -9 43 -20 14 -11 40 -23 57 -27 17 -3 34
-12 37 -19 3 -7 20 -16 38 -20 19 -3 41 -15 51 -25 9 -10 27 -19 39 -19 12 0
30 -9 39 -19 10 -11 30 -22 44 -26 15 -4 34 -12 42 -20 8 -7 26 -16 40 -20 14
-4 36 -16 49 -26 13 -11 33 -19 45 -19 12 0 27 -9 34 -20 7 -12 23 -20 41 -20
15 0 36 -9 46 -20 10 -11 28 -20 40 -20 12 0 30 -9 39 -19 10 -11 31 -23 46
-26 15 -3 36 -15 46 -26 9 -10 28 -19 41 -19 12 0 32 -9 43 -20 13 -13 33 -20
61 -20 26 0 50 -7 66 -20 25 -20 41 -20 833 -20 791 0 807 0 825 20 15 17 30
19 115 19 113 0 165 7 181 27 6 8 30 14 54 14 26 0 51 7 67 19 18 15 48 21
128 26 58 4 114 13 125 20 11 6 41 15 66 19 26 4 54 15 64 26 13 14 31 20 60
20 27 0 50 7 64 19 11 10 43 21 69 25 26 3 57 13 69 21 17 12 77 16 293 21
208 6 275 10 285 21 10 10 62 15 187 19 133 5 179 10 198 22 20 13 69 17 255
22 190 4 234 8 255 21 21 14 67 18 280 22 203 4 256 8 265 20 8 11 60 15 249
20 187 6 243 10 255 22 13 11 72 15 276 21 203 5 264 10 276 21 13 11 75 16
278 21 217 6 263 10 271 22 8 12 51 16 250 21 161 4 245 10 254 18 9 8 94 16
231 22 147 7 225 15 239 23 14 9 74 16 170 20 119 4 153 9 167 22 15 14 47 18
166 22 118 4 152 8 169 22 19 14 56 17 266 19 247 3 298 -3 298 -35 0 -7 29
-42 65 -79 36 -36 65 -74 65 -85 0 -10 21 -41 48 -68 26 -28 61 -65 77 -83 17
-19 44 -46 60 -60 17 -14 35 -34 41 -45 6 -10 25 -28 42 -39 17 -11 31 -26 32
-32 0 -7 3 -13 8 -13 4 0 75 -67 159 -149 104 -103 161 -151 182 -156 17 -3
33 -14 36 -23 9 -28 55 -54 104 -60 31 -3 53 -13 68 -28 13 -14 34 -24 49 -24
15 0 32 -7 38 -15 6 -8 34 -18 61 -21 28 -4 57 -13 65 -20 10 -8 58 -16 123
-20 83 -5 112 -11 129 -25 18 -16 39 -19 142 -19 104 0 125 -3 151 -20 29 -19
47 -20 530 -20 447 1 504 2 530 17 26 14 83 18 413 23 320 6 385 10 400 22 13
12 57 17 191 22 135 4 178 9 191 21 9 8 28 15 43 15 32 0 74 16 93 35 9 8 25
15 36 15 11 0 31 9 45 20 14 11 32 20 39 20 7 0 52 38 100 85 48 47 91 85 94
85 11 0 60 56 60 68 0 7 4 12 9 12 22 0 281 277 281 301 0 9 29 48 65 85 36
38 65 78 65 88 0 11 7 26 15 35 8 9 28 31 45 49 16 18 30 43 30 56 0 13 6 26
14 29 7 3 16 22 20 41 4 20 12 36 19 36 14 1 67 81 67 102 0 8 9 23 20 33 11
10 20 28 20 40 0 12 11 32 25 45 15 14 25 35 25 51 0 15 6 29 14 32 7 3 16 19
19 36 4 17 16 40 27 51 11 11 20 31 20 45 0 14 7 28 15 31 8 3 17 15 21 26 6
20 9 21 703 16 636 -4 699 -5 721 -21 21 -15 55 -17 261 -17 198 0 239 2 249
15 7 8 29 15 49 15 79 0 109 12 166 62 43 39 55 57 55 79 0 18 7 34 20 41 16
10 20 24 20 63 0 38 4 53 18 62 14 8 21 29 26 84 3 40 13 80 20 88 14 16 28
106 27 169 -1 19 5 35 13 38 10 4 16 33 21 102 4 58 13 103 21 112 7 9 16 53
20 99 4 48 15 98 26 119 15 30 18 59 18 165 0 109 3 135 19 161 17 27 19 58
23 263 4 207 7 235 23 253 17 19 18 64 17 891 0 783 -2 872 -16 888 -14 15
-16 64 -16 400 0 307 3 385 13 396 10 10 16 67 21 216 5 134 12 211 20 228 19
37 27 200 27 566 1 351 -7 502 -26 525 -7 9 -16 61 -20 125 -5 78 -12 115 -23
128 -10 12 -18 47 -22 109 -5 68 -11 94 -23 103 -13 9 -17 28 -17 70 0 39 -6
68 -19 89 -10 17 -21 60 -25 95 -3 36 -12 72 -20 80 -8 9 -17 39 -21 68 -4 29
-13 57 -20 63 -8 7 -17 42 -21 80 -4 49 -12 74 -25 86 -14 12 -19 31 -19 64 0
34 -5 52 -20 65 -16 14 -20 31 -20 75 0 42 -5 64 -20 83 -12 15 -20 40 -20 65
0 25 -8 49 -21 65 -11 15 -24 50 -28 78 -5 28 -13 54 -18 58 -6 3 -13 27 -17
53 -4 26 -16 58 -27 71 -11 15 -19 41 -19 65 0 25 -6 45 -19 56 -11 10 -21 37
-24 69 -4 29 -13 57 -21 62 -7 6 -17 34 -21 64 -4 31 -15 61 -26 72 -12 12
-19 33 -19 57 0 25 -7 48 -20 62 -13 15 -20 37 -20 65 0 29 -6 47 -20 60 -14
13 -20 31 -20 60 0 28 -7 50 -20 65 -11 13 -20 34 -20 48 0 13 -11 37 -25 54
-14 16 -25 35 -25 41 0 19 -50 60 -107 90 -47 24 -63 27 -156 27 -86 0 -108
-3 -128 -19 -18 -14 -50 -20 -134 -25 -69 -4 -115 -12 -125 -20 -8 -8 -53 -17
-100 -21 -52 -4 -95 -13 -110 -23 -14 -9 -34 -17 -45 -18 -11 0 -48 -1 -82 -2
-44 -1 -67 -7 -79 -19 -13 -13 -41 -20 -106 -24 -56 -4 -95 -12 -106 -21 -11
-10 -50 -18 -111 -22 -52 -3 -98 -11 -102 -17 -8 -14 -79 -28 -143 -29 -30 0
-56 -6 -66 -15 -11 -10 -47 -17 -101 -21 -57 -4 -92 -12 -110 -24 -19 -13 -49
-19 -118 -21 -68 -3 -94 -8 -101 -19 -7 -11 -35 -17 -99 -20 -62 -4 -96 -11
-108 -22 -14 -12 -53 -17 -168 -23 -102 -4 -157 -11 -172 -21 -17 -10 -58 -14
-160 -14 l-138 0 -64 60 c-40 38 -72 60 -87 60 -13 0 -31 9 -41 19 -10 11 -31
22 -47 25 -15 3 -33 11 -40 19 -6 8 -24 18 -39 21 -16 4 -38 16 -50 26 -11 11
-35 20 -53 20 -17 0 -43 9 -57 20 -14 11 -36 20 -50 20 -13 0 -32 8 -41 19 -9
10 -37 21 -62 25 -25 3 -57 15 -71 26 -14 11 -35 20 -46 20 -11 0 -25 7 -31
15 -6 9 -34 18 -64 22 -29 3 -62 14 -74 24 -13 12 -36 19 -60 19 -25 0 -50 8
-65 20 -16 13 -41 20 -67 20 -29 0 -45 5 -53 19 -9 14 -28 19 -84 23 -55 4
-76 10 -86 24 -10 13 -30 19 -81 22 -38 2 -74 10 -83 19 -17 14 -118 35 -132
26 -4 -3 -20 3 -35 14 -20 13 -54 19 -134 24 -76 4 -113 10 -125 21 -13 11
-51 17 -128 22 -75 5 -115 12 -126 22 -13 11 -55 16 -174 21 -117 5 -158 10
-162 20 -8 20 -845 19 -862 -1z m857 -725 c40 -4 76 -12 80 -18 4 -5 34 -14
67 -17 33 -4 69 -13 80 -20 11 -8 36 -17 55 -21 19 -4 46 -16 59 -26 13 -11
37 -19 53 -19 20 0 46 -13 77 -39 26 -22 60 -43 75 -47 15 -3 30 -12 33 -20 2
-7 17 -16 32 -19 31 -6 62 -27 94 -62 11 -13 29 -23 39 -23 10 0 38 -19 63
-42 111 -104 315 -311 315 -319 0 -4 9 -13 20 -19 11 -6 20 -19 20 -28 0 -10
11 -33 25 -52 14 -19 25 -39 25 -45 0 -7 9 -22 20 -35 11 -13 20 -33 20 -45 0
-12 9 -34 20 -48 11 -14 20 -32 20 -40 0 -8 9 -26 20 -40 11 -14 20 -32 20
-40 0 -8 10 -27 21 -42 16 -19 23 -46 27 -97 3 -46 9 -71 18 -75 8 -3 14 -17
14 -32 0 -36 17 -93 31 -101 6 -4 13 -27 16 -51 3 -24 14 -60 23 -79 9 -19 20
-59 23 -89 4 -30 13 -62 22 -71 13 -14 16 -48 17 -181 2 -172 -2 -202 -30
-215 -9 -4 -152 -10 -316 -12 -242 -3 -304 -7 -322 -19 -19 -12 -103 -15 -542
-16 l-519 -2 -46 44 c-42 40 -45 45 -32 65 8 11 17 41 21 66 4 25 14 53 23 64
13 15 16 46 16 190 0 179 -2 191 -56 276 -5 8 -16 30 -25 49 -19 42 -64 91
-83 91 -7 0 -29 10 -49 22 -32 20 -47 21 -239 21 -193 -1 -207 -2 -234 -22
-19 -14 -43 -21 -73 -21 -32 0 -48 -5 -58 -19 -7 -10 -27 -21 -44 -25 -18 -4
-52 -29 -84 -60 -47 -48 -53 -59 -53 -98 -1 -28 -7 -49 -19 -59 -26 -23 -27
-264 -1 -312 9 -18 20 -58 24 -90 5 -45 15 -67 42 -100 19 -24 41 -62 47 -85
22 -70 9 -75 -215 -87 -68 -4 -116 -11 -125 -19 -10 -9 -69 -15 -190 -20 -129
-5 -179 -11 -190 -21 -12 -11 -65 -16 -225 -21 -160 -5 -216 -10 -234 -21 -18
-12 -76 -16 -266 -20 -133 -3 -253 -3 -267 0 -33 9 -40 37 -17 66 11 13 19 33
19 45 0 12 9 29 20 39 11 9 20 28 20 42 0 14 9 34 20 45 14 14 20 33 20 63 0
31 6 49 20 62 17 16 20 31 20 115 0 75 -4 100 -15 110 -8 7 -15 23 -15 35 0
13 -11 37 -25 53 -14 17 -25 38 -25 48 0 10 -43 60 -95 110 -89 86 -98 93
-147 99 -28 4 -58 14 -66 21 -20 20 -303 20 -335 0 -12 -8 -43 -18 -70 -21
-26 -4 -58 -16 -71 -26 -13 -11 -32 -19 -42 -19 -24 0 -160 -144 -169 -178 -4
-15 -14 -35 -23 -46 -15 -15 -17 -44 -17 -191 l0 -172 34 -34 c18 -19 40 -50
48 -69 15 -35 27 -51 71 -92 12 -12 22 -26 22 -31 0 -4 7 -15 15 -23 8 -9 15
-30 15 -49 0 -35 -13 -45 -57 -45 -14 0 -40 -8 -57 -19 -21 -12 -60 -21 -121
-25 -50 -4 -92 -11 -96 -18 -8 -13 -93 -26 -178 -27 -35 -1 -61 -7 -72 -17
-13 -11 -46 -17 -121 -21 -76 -4 -111 -10 -134 -24 -25 -15 -51 -19 -126 -19
-80 0 -99 -3 -121 -20 -22 -17 -40 -20 -144 -20 -97 0 -123 -3 -149 -19 -23
-14 -60 -20 -160 -26 -81 -4 -135 -12 -144 -20 -9 -8 -63 -15 -145 -20 -90 -5
-135 -11 -146 -21 -12 -10 -58 -16 -165 -21 -117 -5 -157 -10 -184 -25 -49
-26 -97 -23 -142 8 -27 19 -39 36 -44 61 -10 52 1 290 14 305 19 23 72 129 72
144 0 8 18 34 40 58 22 24 40 50 40 59 0 8 11 29 25 45 14 17 25 38 25 47 0 9
9 28 20 42 11 14 20 35 20 47 0 12 9 27 20 34 11 7 20 21 20 31 0 11 18 42 40
70 22 28 40 59 40 69 0 11 11 31 25 46 14 15 25 37 25 49 0 12 9 28 20 35 11
7 20 22 20 35 1 32 134 167 166 167 6 0 22 9 36 19 13 11 37 23 52 27 15 3 30
13 33 20 3 8 16 14 30 14 14 0 38 11 55 25 16 14 39 25 52 25 12 0 29 9 39 20
11 14 29 20 56 20 22 0 48 8 62 18 13 11 44 22 68 26 24 4 55 16 69 26 13 11
35 20 48 20 13 0 27 7 32 16 5 9 31 18 66 23 32 4 61 13 65 20 4 6 32 15 61
20 29 5 59 16 65 25 8 10 27 16 52 16 24 0 50 8 64 19 13 10 45 21 71 25 25 4
52 13 58 21 6 7 36 17 66 21 32 4 58 12 63 21 6 11 30 17 79 21 52 3 76 10 88
23 12 13 31 19 61 19 30 0 49 6 63 20 14 14 33 20 64 20 27 0 52 7 67 19 14
11 50 21 89 26 36 4 72 14 81 21 9 8 47 17 85 21 44 4 78 13 93 25 17 12 41
18 80 18 39 0 65 6 86 20 20 13 47 20 81 20 35 0 59 6 75 18 17 13 49 21 108
25 49 4 94 13 108 22 13 9 54 18 91 22 41 3 72 11 79 20 8 11 44 17 126 22 76
5 121 12 132 21 12 10 54 16 127 20 88 5 112 9 119 22 5 10 26 20 45 24 20 4
38 13 41 20 3 7 21 16 41 20 21 4 48 15 61 25 13 11 30 19 37 19 8 0 22 9 31
20 10 11 30 20 45 20 17 0 33 8 40 20 7 11 22 20 34 20 12 0 32 8 45 19 13 10
43 21 67 24 24 3 51 12 60 20 9 8 40 18 67 22 28 4 58 14 67 22 9 8 49 19 87
23 42 5 76 14 86 24 11 11 34 16 74 16 43 0 65 5 84 20 18 14 42 20 86 21 42
1 69 7 84 19 17 13 52 19 152 24 86 5 135 12 145 21 8 8 40 15 70 18 103 7
615 6 688 -2z m2351 -380 c24 -5 46 -13 50 -18 3 -6 23 -16 44 -22 20 -7 37
-16 37 -21 0 -4 13 -12 28 -18 37 -13 75 -48 96 -89 9 -18 21 -33 26 -33 6 0
10 -4 10 -9 0 -5 17 -27 38 -48 22 -22 42 -50 45 -64 4 -13 25 -44 47 -67 22
-24 40 -51 40 -61 0 -9 18 -37 41 -61 22 -25 43 -57 46 -72 3 -14 23 -44 44
-67 21 -22 39 -48 39 -57 0 -23 42 -84 57 -84 7 0 18 -18 24 -40 7 -22 20 -47
31 -56 10 -10 18 -27 18 -40 0 -13 9 -28 20 -34 11 -6 20 -16 20 -23 0 -7 9
-18 20 -25 11 -7 20 -23 20 -36 0 -12 9 -31 19 -40 10 -10 22 -32 25 -49 4
-18 23 -49 46 -71 22 -22 40 -49 40 -61 0 -12 9 -30 20 -40 11 -10 20 -29 20
-43 0 -14 9 -35 20 -47 16 -17 21 -37 22 -94 l2 -73 -73 -69 c-41 -38 -83 -69
-93 -69 -10 0 -26 -9 -35 -20 -10 -11 -32 -23 -50 -26 -17 -3 -39 -15 -49 -25
-9 -10 -27 -19 -39 -19 -12 0 -31 -10 -43 -22 -44 -47 -59 -58 -79 -58 -11 0
-28 -8 -37 -19 -9 -10 -30 -21 -47 -25 -16 -3 -39 -15 -51 -26 -12 -11 -31
-20 -42 -20 -12 0 -27 -9 -34 -20 -7 -11 -23 -20 -35 -20 -13 0 -32 -7 -43
-15 -10 -8 -28 -14 -39 -14 -11 0 -29 6 -39 14 -11 8 -29 15 -39 15 -24 0
-167 142 -167 166 0 8 -18 37 -40 63 -22 26 -40 54 -40 63 0 8 -9 27 -20 40
-10 14 -22 45 -26 69 -4 24 -15 55 -26 68 -10 13 -18 29 -18 36 0 7 -9 24 -20
38 -11 14 -20 34 -20 45 0 10 -8 29 -19 41 -10 11 -21 44 -25 72 -4 30 -13 52
-21 56 -8 3 -15 15 -15 28 0 12 -9 34 -21 48 -11 15 -24 50 -28 78 -5 28 -14
55 -21 59 -7 4 -16 31 -21 60 -4 29 -15 60 -22 69 -8 9 -18 39 -22 66 -4 28
-13 57 -21 66 -8 8 -17 44 -20 80 -4 35 -13 72 -21 81 -11 12 -16 53 -20 145
-3 84 -10 136 -19 150 -17 27 -18 60 -3 65 6 2 15 28 20 57 6 42 16 61 49 94
22 23 40 45 40 49 0 5 13 8 29 8 15 0 39 8 52 19 13 10 31 21 39 24 23 9 230
7 279 -2z m-2630 -3082 c24 -24 43 -54 46 -73 10 -49 -1 -142 -19 -168 -10
-14 -16 -43 -16 -77 0 -35 -5 -60 -16 -72 -8 -9 -20 -50 -25 -91 -6 -40 -17
-80 -25 -90 -9 -9 -17 -37 -18 -62 -1 -25 -9 -54 -18 -63 -9 -10 -19 -36 -23
-57 -4 -26 -26 -63 -64 -110 -31 -39 -62 -83 -69 -98 -8 -19 -19 -28 -34 -28
-13 0 -38 -16 -57 -35 -40 -42 -42 -42 -191 -50 -73 -3 -120 -10 -130 -19 -10
-9 -60 -16 -150 -20 -99 -5 -138 -10 -146 -21 -8 -10 -47 -16 -145 -21 -108
-6 -139 -11 -158 -25 -20 -16 -42 -19 -137 -19 -103 0 -164 -11 -164 -30 0 -4
-58 -9 -128 -12 -91 -4 -136 -10 -153 -21 -16 -10 -65 -17 -154 -22 -84 -5
-135 -12 -145 -20 -8 -7 -26 -14 -40 -14 -179 -6 -278 -15 -295 -27 -29 -21
-268 -20 -285 1 -7 8 -21 15 -32 15 -11 0 -34 11 -52 25 -18 14 -38 25 -45 25
-7 0 -18 15 -26 33 -8 19 -21 39 -29 47 -9 7 -16 17 -16 22 0 5 -7 25 -17 46
-22 49 -22 52 -1 87 10 17 18 38 18 47 0 10 14 21 36 28 19 7 38 18 41 26 3 8
16 14 30 14 14 0 38 11 55 25 16 14 40 25 53 25 13 0 28 7 33 16 6 10 31 20
63 25 30 5 57 15 61 24 5 8 22 15 37 15 15 0 36 8 45 19 10 11 37 21 65 25 27
4 54 13 61 21 6 7 26 17 43 21 18 3 43 15 56 25 13 11 40 19 61 19 24 0 43 7
55 20 13 14 31 20 62 20 31 0 48 6 60 20 10 11 27 20 39 20 12 0 32 8 45 18
13 11 44 22 68 26 24 4 55 16 69 26 13 11 35 20 49 20 13 0 26 6 29 14 3 9 27
17 59 21 33 5 60 14 71 26 11 12 31 19 54 19 21 0 48 8 61 19 13 10 46 21 72
25 27 4 57 16 68 27 10 10 30 19 43 19 13 0 29 7 36 15 6 7 33 17 58 21 26 4
58 15 71 25 14 11 40 19 62 19 26 0 46 7 59 20 13 13 33 20 59 20 23 0 48 8
63 20 14 10 45 22 69 26 24 4 51 13 60 21 9 8 27 15 40 15 13 1 33 10 45 20
12 10 44 22 72 27 27 4 58 15 67 24 9 10 32 17 53 17 20 0 51 8 67 18 17 11
59 22 94 26 36 4 74 14 85 22 14 10 49 14 117 14 l97 0 41 -41z m-10703 -954
c16 -8 45 -15 65 -15 23 0 42 -7 54 -20 12 -13 31 -20 56 -20 31 0 48 -8 88
-44 27 -24 63 -47 79 -51 35 -7 117 12 133 31 6 8 28 14 49 14 32 0 46 -9 101
-60 35 -33 68 -60 74 -60 6 0 26 -8 45 -19 28 -14 65 -19 183 -23 118 -4 151
-8 165 -21 9 -9 32 -31 50 -48 18 -17 32 -41 32 -53 0 -13 8 -30 19 -40 11
-10 21 -37 24 -67 3 -27 13 -56 22 -65 19 -19 19 -13 -5 -74 -11 -28 -20 -65
-20 -83 0 -18 -11 -50 -25 -72 -13 -22 -25 -48 -25 -58 0 -10 -12 -22 -27 -28
-16 -6 -35 -16 -43 -23 -22 -19 -56 -25 -150 -27 -57 -1 -92 -7 -108 -17 -21
-14 -89 -16 -515 -16 -443 -1 -494 1 -517 16 -16 10 -58 19 -115 23 -69 6 -94
12 -108 26 -10 11 -25 19 -33 19 -9 0 -30 14 -47 32 -31 30 -32 35 -35 127 -3
87 -2 98 17 115 12 11 21 28 21 39 0 12 9 30 20 42 11 12 21 34 22 49 1 15 10
32 19 37 9 4 20 21 23 35 4 15 16 39 27 52 10 14 19 35 19 49 0 13 7 26 15 29
8 3 19 22 26 41 6 19 29 54 51 77 115 120 133 136 153 136 11 0 30 7 41 15 25
19 45 19 80 0z m16530 -488 c5 -5 10 -56 12 -115 3 -80 8 -112 20 -125 12 -14
17 -49 22 -151 4 -96 9 -138 20 -151 11 -14 16 -72 23 -269 6 -192 12 -257 23
-278 19 -36 17 -387 -2 -403 -9 -7 -15 -118 -21 -397 -8 -317 -12 -391 -25
-410 -10 -16 -17 -62 -21 -152 -4 -90 -10 -133 -20 -145 -8 -9 -18 -46 -22
-83 -4 -46 -12 -71 -26 -84 -10 -9 -19 -26 -19 -36 0 -11 -12 -33 -27 -48 -23
-25 -37 -30 -97 -35 -104 -9 -127 1 -142 57 -6 25 -19 56 -28 69 -10 15 -16
44 -16 80 0 40 -6 63 -18 80 -15 18 -20 49 -26 133 -4 76 -11 115 -21 126 -11
13 -17 57 -22 186 -5 129 -10 175 -22 194 -14 21 -16 85 -15 561 2 449 4 541
17 565 11 22 16 89 21 274 5 186 10 249 21 266 8 12 17 56 21 97 4 49 11 78
20 81 7 3 20 21 28 41 8 19 21 35 29 35 8 0 25 8 38 19 13 10 33 21 44 23 33
8 223 4 231 -5z m-3777 -221 c11 -10 39 -20 63 -23 24 -3 52 -14 64 -25 12
-11 37 -19 60 -20 21 0 50 -9 63 -20 13 -10 40 -18 61 -18 22 0 46 -8 59 -19
11 -10 40 -21 62 -25 23 -4 53 -16 67 -26 13 -11 35 -20 49 -20 13 0 26 -7 29
-15 3 -8 24 -20 46 -25 21 -6 42 -18 45 -26 3 -7 11 -14 18 -14 7 0 19 -9 26
-21 13 -18 31 -26 67 -28 6 -1 12 -8 12 -16 0 -8 3 -15 8 -15 7 0 195 -183
219 -213 7 -8 19 -31 27 -51 8 -20 20 -36 25 -36 6 0 11 -14 11 -30 0 -18 8
-37 20 -47 11 -10 22 -36 26 -62 4 -26 15 -57 25 -70 12 -14 19 -40 19 -64 0
-24 7 -48 18 -60 12 -14 18 -43 22 -107 4 -60 11 -95 22 -107 12 -14 17 -57
22 -212 5 -140 11 -201 21 -222 22 -41 22 -337 0 -353 -11 -9 -16 -55 -21
-231 -5 -176 -10 -224 -22 -237 -10 -13 -17 -51 -22 -129 -5 -89 -9 -113 -23
-121 -10 -5 -17 -21 -17 -39 0 -19 -8 -37 -20 -47 -15 -12 -23 -34 -27 -77 -3
-33 -12 -69 -19 -81 -8 -11 -17 -43 -20 -70 -4 -28 -15 -57 -25 -67 -11 -10
-19 -28 -19 -41 0 -13 -9 -31 -20 -41 -11 -10 -20 -27 -20 -38 0 -12 -10 -31
-21 -43 -12 -13 -23 -34 -24 -48 -2 -13 -12 -33 -24 -45 -12 -12 -21 -31 -21
-42 0 -12 -10 -32 -22 -44 -65 -63 -98 -104 -98 -120 0 -18 -138 -165 -155
-165 -6 0 -16 -9 -23 -20 -7 -11 -19 -20 -27 -20 -8 0 -27 -12 -44 -28 -88
-83 -112 -102 -129 -102 -11 0 -27 -9 -36 -19 -10 -10 -33 -22 -52 -26 -19 -3
-37 -12 -40 -19 -3 -8 -19 -16 -35 -20 -17 -3 -42 -15 -56 -26 -14 -11 -33
-20 -41 -20 -9 0 -23 -6 -31 -14 -9 -7 -49 -18 -88 -24 -42 -6 -80 -17 -89
-27 -14 -14 -36 -16 -141 -13 -94 2 -126 6 -133 17 -5 9 -35 18 -79 22 -42 5
-78 14 -87 23 -8 9 -26 16 -38 16 -13 0 -35 9 -50 21 -15 12 -46 23 -69 26
-23 4 -53 14 -66 24 -13 11 -31 19 -40 19 -10 0 -27 9 -39 20 -12 11 -29 20
-39 20 -10 0 -58 39 -108 85 -58 54 -98 85 -113 85 -15 0 -26 9 -32 25 -5 14
-14 25 -19 25 -5 0 -14 13 -19 29 -5 15 -26 43 -45 62 -19 19 -38 45 -42 59
-4 13 -17 37 -27 51 -18 24 -20 40 -16 167 2 113 6 143 20 158 9 11 19 36 23
57 4 21 14 44 21 52 8 7 14 18 14 23 0 4 11 19 25 32 14 13 25 33 25 44 0 12
9 27 20 34 11 7 20 16 20 21 0 5 38 47 85 94 47 47 85 92 85 102 0 9 18 34 39
56 22 23 42 54 45 72 3 18 15 40 26 50 11 9 20 26 20 38 0 11 9 32 20 46 12
15 20 41 20 63 0 23 8 46 20 60 15 18 20 37 20 85 0 47 4 66 18 79 16 14 20
38 25 163 5 100 11 153 21 168 11 17 15 110 21 491 6 388 9 472 21 485 11 12
17 66 24 214 5 109 14 203 19 209 4 6 12 87 15 181 7 164 8 170 34 201 33 39
56 42 309 39 158 -1 185 -4 202 -19z m-4094 -316 c26 -27 28 -35 27 -101 -1
-47 -7 -78 -16 -88 -8 -9 -18 -29 -22 -46 -4 -16 -15 -38 -25 -48 -11 -10 -19
-28 -19 -41 0 -13 -9 -31 -20 -41 -11 -10 -20 -28 -20 -40 0 -12 -9 -30 -20
-40 -11 -10 -20 -23 -20 -30 0 -6 -11 -26 -25 -45 -14 -19 -25 -43 -25 -55 0
-12 -18 -40 -40 -63 -22 -22 -40 -48 -40 -55 0 -8 -17 -36 -39 -63 -21 -27
-45 -63 -54 -80 -9 -17 -29 -45 -46 -63 -17 -18 -31 -35 -31 -36 0 -2 -20 -24
-45 -48 -25 -25 -45 -52 -45 -61 0 -21 -300 -321 -330 -331 -27 -8 -41 -19
-107 -84 -23 -22 -49 -41 -57 -41 -8 0 -34 -18 -58 -40 -23 -21 -54 -42 -67
-45 -23 -6 -58 -29 -103 -70 -10 -8 -26 -15 -36 -15 -11 0 -27 -9 -37 -20 -10
-11 -29 -20 -41 -20 -13 0 -29 -9 -36 -20 -8 -12 -24 -20 -39 -20 -14 0 -34
-9 -44 -20 -10 -11 -33 -23 -52 -26 -19 -4 -37 -13 -40 -20 -3 -8 -28 -17 -55
-20 -29 -4 -59 -15 -69 -25 -12 -12 -33 -19 -54 -19 -20 0 -57 -11 -83 -25
-26 -14 -52 -25 -59 -25 -7 0 -16 -6 -20 -14 -4 -8 -30 -17 -58 -20 -27 -3
-68 -14 -90 -26 -21 -11 -58 -20 -81 -20 -27 0 -49 -7 -64 -20 -17 -15 -37
-20 -80 -20 -41 0 -64 -5 -81 -19 -16 -12 -48 -20 -92 -23 -39 -3 -75 -12 -85
-21 -10 -9 -50 -17 -102 -21 -47 -4 -94 -13 -105 -20 -11 -8 -67 -17 -125 -21
-71 -5 -113 -12 -130 -23 -18 -12 -56 -18 -131 -22 -79 -4 -112 -9 -125 -21
-15 -13 -54 -18 -193 -23 -146 -5 -177 -9 -194 -23 -18 -17 -59 -18 -598 -17
-514 1 -582 3 -597 17 -14 13 -54 17 -192 23 -138 5 -179 10 -193 22 -14 12
-51 18 -146 23 -88 4 -135 11 -152 21 -14 9 -58 18 -107 21 -55 3 -89 10 -100
21 -10 8 -47 18 -87 22 -39 4 -78 13 -87 21 -9 9 -39 18 -65 21 -28 3 -55 12
-66 23 -11 12 -32 19 -56 19 -24 0 -47 8 -61 20 -13 11 -33 20 -45 20 -12 0
-34 11 -49 25 -15 14 -35 25 -44 25 -9 0 -37 18 -61 40 -25 22 -53 40 -63 40
-25 0 -368 345 -368 369 0 11 -11 33 -25 49 -14 17 -25 39 -25 51 0 11 -9 26
-20 33 -11 7 -20 17 -20 23 0 6 -9 18 -20 28 -11 9 -20 28 -20 42 0 14 -8 29
-20 35 -11 6 -20 20 -20 31 0 12 -11 34 -25 51 -14 16 -25 39 -25 52 0 12 -9
29 -20 39 -11 9 -20 25 -20 35 0 11 -10 31 -22 45 -42 47 -58 71 -58 88 0 9
-9 26 -20 39 -11 13 -20 31 -20 40 0 10 -8 28 -19 41 -10 13 -22 39 -26 57 -4
18 -13 36 -20 39 -8 2 -17 26 -21 51 -4 26 -15 58 -25 71 -13 16 -19 40 -19
75 0 45 4 55 31 79 23 20 42 27 74 27 27 0 45 -5 48 -14 3 -8 26 -15 56 -18
34 -3 60 -13 74 -27 13 -11 28 -21 35 -21 6 0 26 -8 44 -19 19 -11 55 -19 88
-20 37 -1 64 -8 82 -21 19 -14 43 -20 83 -20 39 0 64 -6 83 -19 19 -13 53 -21
112 -26 50 -4 91 -12 101 -21 10 -9 52 -16 120 -20 57 -4 113 -12 124 -19 26
-16 80 -24 174 -27 50 -1 78 -7 89 -17 11 -12 54 -17 186 -23 122 -6 179 -12
197 -23 23 -13 110 -15 600 -16 992 -2 1036 -1 1053 16 13 13 64 17 299 23
239 6 286 9 299 23 13 13 52 17 207 22 139 4 196 10 213 20 16 10 69 17 172
21 107 4 154 10 165 20 10 9 54 17 121 21 66 5 114 13 129 22 16 10 62 18 132
22 79 4 112 10 125 23 14 11 43 17 105 20 65 2 92 7 106 21 12 10 36 17 59 17
48 0 114 18 114 30 0 6 21 10 48 10 53 0 112 14 122 30 3 5 38 12 78 16 51 5
76 12 88 25 13 15 31 19 80 19 45 0 67 5 79 17 9 9 40 20 67 24 28 5 58 15 67
22 9 8 38 17 64 20 29 3 53 11 61 22 9 13 32 19 84 23 52 3 76 10 88 23 12 13
31 19 59 19 29 0 47 6 60 20 12 13 31 20 54 20 20 0 53 9 74 20 20 11 44 20
52 20 8 0 22 9 32 19 10 11 39 22 68 26 28 4 57 13 65 20 8 8 27 16 42 20 15
4 32 13 39 21 6 8 30 14 53 14 34 0 48 -6 71 -30z"/>
</g>
</svg>
